<?xml version="1.0" encoding="UTF-8" standalone="no"?><svg xmlns="http://www.w3.org/2000/svg" xmlns:xlink="http://www.w3.org/1999/xlink" contentStyleType="text/css" height="244px" preserveAspectRatio="none" style="width:1185px;height:244px;background:#FFFFFF;" version="1.1" viewBox="0 0 1185 244" width="1185px" zoomAndPan="magnify"><defs/><g><!--MD5=[7ceda4e0a28d65e0f6e17dad790f4825]
entity LDAP--><g id="elem_LDAP"><path d="M1112.5,192 C1112.5,182 1140.5,182 1140.5,182 C1140.5,182 1168.5,182 1168.5,192 L1168.5,217.7999 C1168.5,227.7999 1140.5,227.7999 1140.5,227.7999 C1140.5,227.7999 1112.5,227.7999 1112.5,217.7999 L1112.5,192 " fill="#F1F1F1" style="stroke:#181818;stroke-width:0.5;"/><path d="M1112.5,192 C1112.5,202 1140.5,202 1140.5,202 C1140.5,202 1168.5,202 1168.5,192 " fill="none" style="stroke:#181818;stroke-width:0.5;"/><text fill="#000000" font-family="sans-serif" font-size="14" lengthAdjust="spacing" textLength="36" x="1122.5" y="219.9999">LDAP</text></g><g id="elem_secret_openldap_simple_bind"><rect fill="#F1F1F1" height="62.3998" style="stroke:#181818;stroke-width:0.5;" width="266" x="283.5" y="175"/><text fill="#000000" font-family="sans-serif" font-size="14" lengthAdjust="spacing" textLength="176" x="328.5" y="190.9999">Secret openldap-simple-bind</text><line style="stroke:#181818;stroke-width:1.0;" x1="283.5" x2="549.5" y1="195.7999" y2="195.7999"/><text fill="#000000" font-family="sans-serif" font-size="14" lengthAdjust="spacing" textLength="27" x="305" y="211.7999">user</text><text fill="#000000" font-family="sans-serif" font-size="14" lengthAdjust="spacing" textLength="186" x="358.5" y="211.7999">cn=admin,dc=example,dc=org</text><line style="stroke:#181818;stroke-width:1.0;" x1="353.5" x2="353.5" y1="195.7999" y2="216.5999"/><line style="stroke:#181818;stroke-width:1.0;" x1="283.5" x2="549.5" y1="216.5999" y2="216.5999"/><text fill="#000000" font-family="sans-serif" font-size="14" lengthAdjust="spacing" textLength="60" x="288.5" y="232.5998">password</text><text fill="#000000" font-family="sans-serif" font-size="14" lengthAdjust="spacing" textLength="38" x="358.5" y="232.5998">admin</text><line style="stroke:#181818;stroke-width:1.0;" x1="353.5" x2="353.5" y1="216.5999" y2="237.3998"/></g><g id="elem_secret_openldap_simple_ca"><rect fill="#F1F1F1" height="41.5999" style="stroke:#181818;stroke-width:0.5;" width="204" x="865.5" y="185"/><text fill="#000000" font-family="sans-serif" font-size="14" lengthAdjust="spacing" textLength="164" x="885.5" y="200.9999">Secret openldap-simple-ca</text><line style="stroke:#181818;stroke-width:1.0;" x1="865.5" x2="1069.5" y1="205.7999" y2="205.7999"/><text fill="#000000" font-family="sans-serif" font-size="14" lengthAdjust="spacing" textLength="41" x="870.5" y="221.7999">caCert</text><text fill="#000000" font-family="sans-serif" font-size="14" lengthAdjust="spacing" textLength="143" x="921.5" y="221.7999">&lt;ca certificate content&gt;</text><line style="stroke:#181818;stroke-width:1.0;" x1="916.5" x2="916.5" y1="205.7999" y2="226.5999"/></g><g id="elem_secret_class_openldap_simple_bind"><rect fill="#F1F1F1" height="41.5999" style="stroke:#181818;stroke-width:0.5;" width="225" x="7" y="185"/><text fill="#000000" font-family="sans-serif" font-size="14" lengthAdjust="spacing" textLength="211" x="14" y="200.9999">SecretClass openldap-simple-bind</text><line style="stroke:#181818;stroke-width:1.0;" x1="7" x2="232" y1="205.7999" y2="205.7999"/><text fill="#000000" font-family="sans-serif" font-size="14" lengthAdjust="spacing" textLength="66" x="86.5" y="221.7999">k8sSearch</text></g><g id="elem_secret_class_openldap_simple_ca"><rect fill="#F1F1F1" height="41.5999" style="stroke:#181818;stroke-width:0.5;" width="213" x="601" y="185"/><text fill="#000000" font-family="sans-serif" font-size="14" lengthAdjust="spacing" textLength="199" x="608" y="200.9999">SecretClass openldap-simple-ca</text><line style="stroke:#181818;stroke-width:1.0;" x1="601" x2="814" y1="205.7999" y2="205.7999"/><text fill="#000000" font-family="sans-serif" font-size="14" lengthAdjust="spacing" textLength="66" x="674.5" y="221.7999">k8sSearch</text></g><g id="elem_authentication_class_openldap_simple"><rect fill="#F1F1F1" height="103.9996" style="stroke:#181818;stroke-width:0.5;" width="324" x="545.5" y="7"/><text fill="#000000" font-family="sans-serif" font-size="14" lengthAdjust="spacing" textLength="228" x="593.5" y="22.9999">AuthenticationClass openldap-simple</text><line style="stroke:#181818;stroke-width:1.0;" x1="545.5" x2="869.5" y1="27.7999" y2="27.7999"/><text fill="#000000" font-family="sans-serif" font-size="14" lengthAdjust="spacing" textLength="55" x="680" y="43.7999">ldapHost</text><line style="stroke:#181818;stroke-width:1.0;" x1="545.5" x2="869.5" y1="48.5999" y2="48.5999"/><text fill="#000000" font-family="sans-serif" font-size="14" lengthAdjust="spacing" textLength="122" x="646.5" y="64.5998">tlsServerVerification</text><line style="stroke:#181818;stroke-width:1.0;" x1="545.5" x2="869.5" y1="69.3998" y2="69.3998"/><text fill="#000000" font-family="sans-serif" font-size="14" lengthAdjust="spacing" textLength="97" x="659" y="85.3997">bindCredentials</text><line style="stroke:#181818;stroke-width:1.0;" x1="545.5" x2="869.5" y1="90.1997" y2="90.1997"/><text fill="#000000" font-family="sans-serif" font-size="14" lengthAdjust="spacing" textLength="102" x="560.5" y="106.1996">ldapSearchBase</text><text fill="#000000" font-family="sans-serif" font-size="14" lengthAdjust="spacing" textLength="182" x="682.5" y="106.1996">ou=users,dc=example,dc=org</text><line style="stroke:#181818;stroke-width:1.0;" x1="677.5" x2="677.5" y1="90.1997" y2="110.9996"/></g><!--MD5=[b01cbb5cabf9d315d9c994b3e4e9954e]
link secret_class_openldap_simple_bind to secret_openldap_simple_bind--><g id="link_secret_class_openldap_simple_bind_secret_openldap_simple_bind"><path d="M233.5,215 C245.51,217.52 257.96,219.45 270.46,220.85 " fill="none" id="secret_class_openldap_simple_bind-to-secret_openldap_simple_bind" style="stroke:#181818;stroke-width:1.0;"/><polygon fill="#181818" points="275.44,221.38,266.9133,216.4509,270.468,220.8514,266.0675,224.406,275.44,221.38" style="stroke:#181818;stroke-width:1.0;"/></g><!--MD5=[c0eb0e97dd636255943aeff87471c522]
link secret_class_openldap_simple_ca to secret_openldap_simple_ca--><g id="link_secret_class_openldap_simple_ca_secret_openldap_simple_ca"><path d="M815.5,215 C827.34,217.99 839.69,220.15 852,221.58 " fill="none" id="secret_class_openldap_simple_ca-to-secret_openldap_simple_ca" style="stroke:#181818;stroke-width:1.0;"/><polygon fill="#181818" points="857.28,222.14,848.7533,217.2109,852.308,221.6114,847.9075,225.166,857.28,222.14" style="stroke:#181818;stroke-width:1.0;"/></g><!--MD5=[66698df798bf320606171d426cc3ab8d]
link authentication_class_openldap_simple to LDAP--><g id="link_authentication_class_openldap_simple_LDAP"><path d="M870.5,37 C976.38,37 1075.39,131.03 1118.22,177.98 " fill="none" id="authentication_class_openldap_simple-to-LDAP" style="stroke:#181818;stroke-width:1.0;"/><polygon fill="#181818" points="1121.7,181.82,1118.6147,172.4669,1118.3402,178.1171,1112.69,177.8426,1121.7,181.82" style="stroke:#181818;stroke-width:1.0;"/></g><!--MD5=[978b3ba267d21a0e24c1145c19b14f3e]
link authentication_class_openldap_simple to secret_class_openldap_simple_ca--><g id="link_authentication_class_openldap_simple_secret_class_openldap_simple_ca"><path d="M870.5,57 C894.5,57 881.72,90.34 869.5,111 C850.85,142.53 817.13,164.34 785.26,178.87 " fill="none" id="authentication_class_openldap_simple-to-secret_class_openldap_simple_ca" style="stroke:#181818;stroke-width:1.0;"/><polygon fill="#181818" points="780.57,180.96,790.4188,180.94,785.1349,178.92,787.1549,173.6361,780.57,180.96" style="stroke:#181818;stroke-width:1.0;"/></g><!--MD5=[85a8047ed36580d25939222faa70f7f9]
link authentication_class_openldap_simple to secret_class_openldap_simple_bind--><g id="link_authentication_class_openldap_simple_secret_class_openldap_simple_bind"><path d="M544.5,77 C403.87,77 247.62,141.62 169.58,178.67 " fill="none" id="authentication_class_openldap_simple-to-secret_class_openldap_simple_bind" style="stroke:#181818;stroke-width:1.0;"/><polygon fill="#181818" points="165.02,180.85,174.8651,180.5787,169.5314,178.6942,171.4159,173.3605,165.02,180.85" style="stroke:#181818;stroke-width:1.0;"/></g><!--MD5=[8054d1e89cebf673658023fd1a2c4a20]
@startuml
allowmixing

database LDAP

map "Secret openldap-simple-bind" as secret_openldap_simple_bind {
    user => cn=admin,dc=example,dc=org
    password => admin
}

map "Secret openldap-simple-ca" as secret_openldap_simple_ca {
    caCert => <ca certificate content>
}

map "SecretClass openldap-simple-bind" as secret_class_openldap_simple_bind {
    k8sSearch *-> secret_openldap_simple_bind
}

map "SecretClass openldap-simple-ca" as secret_class_openldap_simple_ca {
    k8sSearch *-> secret_openldap_simple_ca
}

map "AuthenticationClass openldap-simple" as authentication_class_openldap_simple {
    ldapHost *- -> LDAP
    tlsServerVerification *- -> secret_class_openldap_simple_ca
    bindCredentials *- -> secret_class_openldap_simple_bind
    ldapSearchBase => ou=users,dc=example,dc=org
}
@enduml

PlantUML version 1.2022.5(Sat Apr 30 10:55:52 GMT 2022)
(GPL source distribution)
Java Runtime: OpenJDK Runtime Environment
JVM: OpenJDK 64-Bit Server VM
Default Encoding: UTF-8
Language: en
Country: US
--></g></svg>